<svg width="492" height="92" viewBox="0 0 492 92" fill="none" xmlns="http://www.w3.org/2000/svg">
<g clip-path="url(#clip0_3_7)">
<path d="M27.7031 23.5312C30.8281 23.7188 33.4531 23.875 35.5781 24C37.7656 24.0625 39.5781 24.125 41.0156 24.1875C42.6406 24.25 44.0156 24.25 45.1406 24.1875C46.2656 24.125 47.7969 23.9687 49.7344 23.7188C51.3594 23.5312 53.5156 23.25 56.2031 22.875C58.9531 22.4375 62.3594 21.875 66.4219 21.1875C64.9844 22.625 63.8594 23.9375 63.0469 25.125C62.2969 26.25 61.7031 27.2188 61.2656 28.0312C60.7656 29.0312 60.4219 29.875 60.2344 30.5625C60.1094 31.1875 60.2344 32.75 60.6094 35.25C60.9844 37.75 61.5156 40.7188 62.2031 44.1562C62.8906 47.5312 63.6406 51.1562 64.4531 55.0312C65.2656 58.8438 66.0781 62.4375 66.8906 65.8125C67.7031 69.125 68.4219 71.9688 69.0469 74.3438C69.7344 76.6562 70.2344 78.0312 70.5469 78.4688C71.4844 79.7812 72.0781 80.6562 72.3281 81.0938C72.5781 81.4688 73.0156 81.8125 73.6406 82.125C73.8906 82.25 74.2969 82.4375 74.8594 82.6875C75.3594 82.9375 76.0156 83.25 76.8281 83.625C77.7031 84 78.7969 84.4375 80.1094 84.9375C77.6719 85.0625 75.5781 85.1562 73.8281 85.2188C72.0781 85.2188 70.6406 85.25 69.5156 85.3125C68.2031 85.375 67.0781 85.4375 66.1406 85.5C65.2031 85.5 64.0781 85.5625 62.7656 85.6875C61.6406 85.8125 60.1719 85.9375 58.3594 86.0625C56.6094 86.1875 54.5469 86.3125 52.1719 86.4375C53.4219 85.5625 54.4219 84.7812 55.1719 84.0938C55.9844 83.3438 56.6094 82.7188 57.0469 82.2188C57.5469 81.5938 57.8906 81.0312 58.0781 80.5312C58.2031 79.9688 58.2969 79.125 58.3594 78C58.4219 77 58.4219 75.6875 58.3594 74.0625C58.2969 72.375 58.1406 70.1875 57.8906 67.5L33.2344 70.0312C32.6094 71.0938 32.1406 72.0312 31.8281 72.8438C31.5156 73.5938 31.2969 74.25 31.1719 74.8125C30.9844 75.5 30.9219 76.0625 30.9844 76.5C31.1094 77 31.3281 77.5938 31.6406 78.2812C31.9531 78.9062 32.3906 79.6562 32.9531 80.5312C33.5781 81.3438 34.4844 82.3125 35.6719 83.4375C34.1094 83.375 32.5156 83.3438 30.8906 83.3438C29.2656 83.3438 27.7656 83.375 26.3906 83.4375C24.7656 83.5 23.1719 83.5625 21.6094 83.625C20.0469 83.6875 18.2656 83.7812 16.2656 83.9062C14.5781 84.0312 12.6094 84.1875 10.3594 84.375C8.04688 84.5 5.57812 84.6875 2.95312 84.9375C4.57812 84.1875 5.95312 83.4375 7.07812 82.6875C8.20312 81.875 9.14062 81.125 9.89062 80.4375C10.7656 79.6875 11.5156 78.9688 12.1406 78.2812C12.5781 77.6562 13.4531 76.2188 14.7656 73.9688C16.0781 71.6562 17.5469 68.9375 19.1719 65.8125C20.8594 62.6875 22.6094 59.3438 24.4219 55.7812C26.2969 52.2188 27.9844 48.875 29.4844 45.75C30.9844 42.5625 32.2031 39.8125 33.1406 37.5C34.0781 35.1875 34.5469 33.6875 34.5469 33C34.4219 32.1875 34.1094 31.2812 33.6094 30.2812C33.1719 29.4062 32.4844 28.4062 31.5469 27.2812C30.6719 26.1562 29.3906 24.9062 27.7031 23.5312ZM56.7656 60.5625C56.3906 58.375 56.0469 56.5 55.7344 54.9375C55.4219 53.3125 55.1719 51.9688 54.9844 50.9062C54.7344 49.6562 54.5469 48.5625 54.4219 47.625C54.2344 46.75 54.0156 45.625 53.7656 44.25C53.5156 43.0625 53.2031 41.5938 52.8281 39.8438C52.5156 38.0312 52.1094 35.875 51.6094 33.375C48.0469 40.5 45.2656 46.0312 43.2656 49.9688C41.3281 53.8438 39.9219 56.6875 39.0469 58.5C37.9844 60.625 37.3906 61.875 37.2656 62.25L56.7656 60.5625ZM66.1406 19.6875C70.3281 19.875 73.5781 19.9688 75.8906 19.9688H79.3594C80.3594 19.9688 81.6094 19.9375 83.1094 19.875C84.3594 19.8125 85.9531 19.7812 87.8906 19.7812C89.8281 19.7188 92.1406 19.625 94.8281 19.5C93.5781 20.375 92.5781 21.2188 91.8281 22.0312C91.0781 22.8437 90.4844 23.5625 90.0469 24.1875C89.5469 24.9375 89.2031 25.625 89.0156 26.25C88.5781 27.875 88.3906 30.0938 88.4531 32.9062C88.5781 35.6562 88.8594 38.6562 89.2969 41.9062C89.7344 45.0938 90.2656 48.3438 90.8906 51.6562C91.5156 54.9688 92.1406 57.9688 92.7656 60.6562C93.4531 63.3438 94.0469 65.5625 94.5469 67.3125C95.1094 69 95.5156 69.8438 95.7656 69.8438C96.0156 69.8438 96.4844 68.9375 97.1719 67.125C97.9219 65.3125 98.7656 63.0312 99.7031 60.2812C100.641 57.4688 101.609 54.4375 102.609 51.1875C103.609 47.875 104.516 44.75 105.328 41.8125C106.203 38.8125 106.922 36.25 107.484 34.125C108.047 31.9375 108.328 30.5938 108.328 30.0938C108.266 29.4062 108.047 28.6875 107.672 27.9375C107.359 27.25 106.797 26.4688 105.984 25.5938C105.234 24.6562 104.172 23.5937 102.797 22.4062C104.734 22.3438 106.391 22.2812 107.766 22.2188C109.203 22.1563 110.422 22.125 111.422 22.125H114.328H129.328C127.766 23.1875 126.422 24.2188 125.297 25.2188C124.234 26.2187 123.359 27.1562 122.672 28.0312C121.859 29.0312 121.172 29.9687 120.609 30.8438C119.984 32.1562 118.953 35 117.516 39.375C116.891 41.25 116.172 43.5312 115.359 46.2188C114.547 48.9062 113.578 52.125 112.453 55.875C111.328 59.625 110.078 63.9688 108.703 68.9062C107.328 73.7812 105.766 79.3438 104.016 85.5938L90.9844 87.2812C89.4219 82.4062 88.0469 77.9688 86.8594 73.9688C85.7344 69.9062 84.7344 66.4375 83.8594 63.5625C82.8594 60.1875 82.0156 57.1562 81.3281 54.4688C80.3906 51.2188 79.5781 47.9375 78.8906 44.625C78.2656 41.25 77.7031 38.2188 77.2031 35.5312C76.7656 32.7812 76.3594 30.5 75.9844 28.6875C75.6094 26.875 75.2031 25.8125 74.7656 25.5C74.3906 25.1875 73.8281 24.7813 73.0781 24.2812C72.3906 23.8438 71.5156 23.2813 70.4531 22.5938C69.3281 21.8438 67.8906 20.875 66.1406 19.6875ZM134.484 23.5312C137.609 23.7188 140.234 23.875 142.359 24C144.547 24.0625 146.359 24.125 147.797 24.1875C149.422 24.25 150.797 24.25 151.922 24.1875C153.047 24.125 154.578 23.9687 156.516 23.7188C158.141 23.5312 160.297 23.25 162.984 22.875C165.734 22.4375 169.141 21.875 173.203 21.1875C171.766 22.625 170.641 23.9375 169.828 25.125C169.078 26.25 168.484 27.2188 168.047 28.0312C167.547 29.0312 167.203 29.875 167.016 30.5625C166.891 31.1875 167.016 32.75 167.391 35.25C167.766 37.75 168.297 40.7188 168.984 44.1562C169.672 47.5312 170.422 51.1562 171.234 55.0312C172.047 58.8438 172.859 62.4375 173.672 65.8125C174.484 69.125 175.203 71.9688 175.828 74.3438C176.516 76.6562 177.016 78.0312 177.328 78.4688C178.266 79.7812 178.859 80.6562 179.109 81.0938C179.359 81.4688 179.797 81.8125 180.422 82.125C180.672 82.25 181.078 82.4375 181.641 82.6875C182.141 82.9375 182.797 83.25 183.609 83.625C184.484 84 185.578 84.4375 186.891 84.9375C184.453 85.0625 182.359 85.1562 180.609 85.2188C178.859 85.2188 177.422 85.25 176.297 85.3125C174.984 85.375 173.859 85.4375 172.922 85.5C171.984 85.5 170.859 85.5625 169.547 85.6875C168.422 85.8125 166.953 85.9375 165.141 86.0625C163.391 86.1875 161.328 86.3125 158.953 86.4375C160.203 85.5625 161.203 84.7812 161.953 84.0938C162.766 83.3438 163.391 82.7188 163.828 82.2188C164.328 81.5938 164.672 81.0312 164.859 80.5312C164.984 79.9688 165.078 79.125 165.141 78C165.203 77 165.203 75.6875 165.141 74.0625C165.078 72.375 164.922 70.1875 164.672 67.5L140.016 70.0312C139.391 71.0938 138.922 72.0312 138.609 72.8438C138.297 73.5938 138.078 74.25 137.953 74.8125C137.766 75.5 137.703 76.0625 137.766 76.5C137.891 77 138.109 77.5938 138.422 78.2812C138.734 78.9062 139.172 79.6562 139.734 80.5312C140.359 81.3438 141.266 82.3125 142.453 83.4375C140.891 83.375 139.297 83.3438 137.672 83.3438C136.047 83.3438 134.547 83.375 133.172 83.4375C131.547 83.5 129.953 83.5625 128.391 83.625C126.828 83.6875 125.047 83.7812 123.047 83.9062C121.359 84.0312 119.391 84.1875 117.141 84.375C114.828 84.5 112.359 84.6875 109.734 84.9375C111.359 84.1875 112.734 83.4375 113.859 82.6875C114.984 81.875 115.922 81.125 116.672 80.4375C117.547 79.6875 118.297 78.9688 118.922 78.2812C119.359 77.6562 120.234 76.2188 121.547 73.9688C122.859 71.6562 124.328 68.9375 125.953 65.8125C127.641 62.6875 129.391 59.3438 131.203 55.7812C133.078 52.2188 134.766 48.875 136.266 45.75C137.766 42.5625 138.984 39.8125 139.922 37.5C140.859 35.1875 141.328 33.6875 141.328 33C141.203 32.1875 140.891 31.2812 140.391 30.2812C139.953 29.4062 139.266 28.4062 138.328 27.2812C137.453 26.1562 136.172 24.9062 134.484 23.5312ZM163.547 60.5625C163.172 58.375 162.828 56.5 162.516 54.9375C162.203 53.3125 161.953 51.9688 161.766 50.9062C161.516 49.6562 161.328 48.5625 161.203 47.625C161.016 46.75 160.797 45.625 160.547 44.25C160.297 43.0625 159.984 41.5938 159.609 39.8438C159.297 38.0312 158.891 35.875 158.391 33.375C154.828 40.5 152.047 46.0312 150.047 49.9688C148.109 53.8438 146.703 56.6875 145.828 58.5C144.766 60.625 144.172 61.875 144.047 62.25L163.547 60.5625ZM178.641 18.5625C180.641 18.875 182.453 19.1562 184.078 19.4062C185.703 19.5938 187.109 19.75 188.297 19.875C189.672 20.0625 190.891 20.2187 191.953 20.3438C193.266 20.5312 195.234 20.3125 197.859 19.6875C200.484 19 203.359 18.375 206.484 17.8125C209.672 17.1875 212.922 16.8438 216.234 16.7812C219.547 16.6562 222.578 17.25 225.328 18.5625C228.078 19.875 230.328 21.1875 232.078 22.5C233.828 23.8125 235.203 25.2188 236.203 26.7188C237.266 28.1563 238.016 29.6875 238.453 31.3125C238.891 32.9375 239.141 34.7188 239.203 36.6562C239.141 39.5312 238.453 42.3125 237.141 45C236.578 46.125 235.828 47.3125 234.891 48.5625C234.016 49.75 232.922 50.9062 231.609 52.0312C230.297 53.1562 228.734 54.2188 226.922 55.2188C225.172 56.2188 223.109 57.0938 220.734 57.8438C223.047 58.5312 224.953 59.3438 226.453 60.2812C228.016 61.2188 229.266 62.0938 230.203 62.9062C231.328 63.9062 232.172 64.875 232.734 65.8125C233.422 67.125 233.891 68.25 234.141 69.1875C234.391 70.125 234.547 71.0312 234.609 71.9062C234.734 72.7188 234.891 73.5625 235.078 74.4375C235.266 75.3125 235.672 76.3125 236.297 77.4375C236.797 78.3125 237.391 79.2188 238.078 80.1562C238.703 80.9688 239.422 81.8438 240.234 82.7812C241.109 83.7188 242.172 84.625 243.422 85.5C241.672 85.5625 240.047 85.5938 238.547 85.5938C237.109 85.5938 235.859 85.5938 234.797 85.5938C233.547 85.5938 232.359 85.5625 231.234 85.5C230.109 85.4375 228.703 85.4062 227.016 85.4062C225.578 85.4062 223.734 85.4062 221.484 85.4062C219.297 85.4062 216.641 85.4375 213.516 85.5C214.891 84.4375 216.016 83.375 216.891 82.3125C217.766 81.25 218.453 80.2812 218.953 79.4062C219.516 78.4062 219.922 77.4375 220.172 76.5C220.484 74.8125 220.516 73.0625 220.266 71.25C220.078 69.6875 219.578 67.9688 218.766 66.0938C217.953 64.1562 216.641 62.2188 214.828 60.2812C213.016 60.5938 211.484 60.8438 210.234 61.0312C209.047 61.1562 208.016 61.2812 207.141 61.4062C206.141 61.5312 205.328 61.625 204.703 61.6875C204.141 61.75 203.516 61.8125 202.828 61.875C202.266 61.9375 201.641 62.0312 200.953 62.1562C200.328 62.2188 199.734 62.3125 199.172 62.4375C199.047 65.125 199.047 67.4688 199.172 69.4688C199.297 71.4062 199.453 73.0312 199.641 74.3438C199.891 75.9062 200.172 77.25 200.484 78.375C200.797 79.5 201.234 80.5938 201.797 81.6562C202.234 82.5312 202.797 83.4688 203.484 84.4688C204.172 85.4062 204.953 86.1875 205.828 86.8125C204.203 86.8125 202.641 86.8125 201.141 86.8125C199.703 86.8125 198.391 86.7812 197.203 86.7188C195.828 86.7188 194.516 86.6875 193.266 86.625C192.016 86.5625 190.609 86.5312 189.047 86.5312C187.734 86.5312 186.172 86.5312 184.359 86.5312C182.609 86.5312 180.703 86.5625 178.641 86.625C180.266 84.9375 181.547 83.5 182.484 82.3125C183.422 81.125 184.141 80.125 184.641 79.3125C185.203 78.4375 185.547 77.6875 185.672 77.0625C185.797 76.0625 185.891 74.2812 185.953 71.7188C186.078 69.0938 186.172 66.0938 186.234 62.7188C186.297 59.3438 186.328 55.8125 186.328 52.125C186.328 48.4375 186.297 45 186.234 41.8125C186.172 38.5625 186.109 35.7812 186.047 33.4688C185.984 31.1563 185.922 29.6875 185.859 29.0625C185.672 27.9375 185.266 26.8125 184.641 25.6875C184.141 24.6875 183.422 23.5625 182.484 22.3125C181.547 21.0625 180.266 19.8125 178.641 18.5625ZM214.078 51.5625C214.703 51.1875 215.234 50.8125 215.672 50.4375C216.109 50.0625 216.484 49.4688 216.797 48.6562C217.109 47.7812 217.359 46.5625 217.547 45C217.797 43.4375 218.078 41.3125 218.391 38.625C218.641 35.9375 218.453 33.7188 217.828 31.9688C217.266 30.2188 216.484 28.8437 215.484 27.8438C214.547 26.7812 213.484 26.0625 212.297 25.6875C211.172 25.25 210.172 25.0312 209.297 25.0312C207.547 25.0312 205.828 25.5625 204.141 26.625C202.453 27.6875 201.172 29.125 200.297 30.9375C199.984 31.75 199.703 33.0938 199.453 34.9688C199.266 36.5938 199.141 38.8438 199.078 41.7188C199.016 44.5938 199.109 48.375 199.359 53.0625C201.734 53.4375 203.828 53.5938 205.641 53.5312C207.453 53.4062 208.984 53.1875 210.234 52.875C211.734 52.5625 213.016 52.125 214.078 51.5625ZM237.703 22.9688C242.078 23.0938 245.703 23.1875 248.578 23.25C251.516 23.25 253.891 23.25 255.703 23.25H260.672H288.609C288.734 24.5 288.828 25.7188 288.891 26.9062C289.016 28.0312 289.078 29.0312 289.078 29.9062C289.078 30.9688 289.047 31.9375 288.984 32.8125C288.922 33.6875 288.828 34.625 288.703 35.625C288.578 36.5 288.453 37.4375 288.328 38.4375C288.203 39.4375 287.984 40.4688 287.672 41.5312C286.797 38.1562 285.609 35.5938 284.109 33.8438C282.672 32.0938 281.203 30.8125 279.703 30C277.953 29.0625 276.109 28.5625 274.172 28.5C271.609 28.625 269.609 28.8437 268.172 29.1562C266.734 29.4688 265.609 29.9062 264.797 30.4688C263.984 31.0312 263.359 31.6875 262.922 32.4375C262.547 33.125 262.141 33.9062 261.703 34.7812C261.328 35.5312 260.984 36.6875 260.672 38.25C260.359 39.5625 260.047 41.3438 259.734 43.5938C259.484 45.8438 259.203 48.75 258.891 52.3125C260.578 51.8125 261.922 51.3438 262.922 50.9062C263.984 50.4688 264.828 50.0938 265.453 49.7812C266.141 49.4062 266.641 49.0625 266.953 48.75C267.203 48.375 267.578 47.6875 268.078 46.6875C268.453 45.8125 268.953 44.625 269.578 43.125C270.266 41.625 271.078 39.5625 272.016 36.9375C272.141 39.8125 272.203 42.2188 272.203 44.1562C272.203 46.0312 272.234 47.5625 272.297 48.75C272.297 50.125 272.328 51.2188 272.391 52.0312V55.5938C272.391 56.9062 272.391 58.6875 272.391 60.9375C272.453 63.125 272.547 65.9062 272.672 69.2812C271.922 66.9688 271.234 65.1562 270.609 63.8438C270.047 62.4688 269.547 61.4375 269.109 60.75C268.609 59.9375 268.172 59.375 267.797 59.0625C267.359 58.9375 266.766 58.8125 266.016 58.6875C265.328 58.625 264.453 58.5938 263.391 58.5938C262.391 58.5938 261.109 58.75 259.547 59.0625C259.359 62.5 259.328 65.2812 259.453 67.4062C259.641 69.4688 259.891 71.0625 260.203 72.1875C260.516 73.5 260.891 74.4375 261.328 75C261.891 75.5625 263.016 76.0312 264.703 76.4062C266.391 76.7188 268.297 76.8438 270.422 76.7812C272.609 76.6562 274.828 76.2812 277.078 75.6562C279.328 75.0312 281.328 74 283.078 72.5625C284.391 71.375 285.797 69.875 287.297 68.0625C288.547 66.5 289.922 64.5312 291.422 62.1562C292.984 59.7812 294.516 56.9062 296.016 53.5312C295.766 56.3438 295.578 58.6875 295.453 60.5625C295.391 62.375 295.297 63.8438 295.172 64.9688C295.047 66.2812 294.953 67.2812 294.891 67.9688C294.891 68.7188 294.797 69.7812 294.609 71.1562C294.484 72.3438 294.266 73.9688 293.953 76.0312C293.703 78.0312 293.359 80.5938 292.922 83.7188C289.984 83.7812 287.203 83.8438 284.578 83.9062C281.953 83.9062 279.641 83.9375 277.641 84C275.266 84.0625 273.078 84.125 271.078 84.1875C269.016 84.1875 266.734 84.2812 264.234 84.4688C262.047 84.5938 259.453 84.7812 256.453 85.0312C253.516 85.2812 250.266 85.625 246.703 86.0625C247.016 81.8125 247.234 77.8125 247.359 74.0625C247.547 70.25 247.672 66.9062 247.734 64.0312C247.797 60.6562 247.797 57.5312 247.734 54.6562C248.047 47.4688 247.922 41.6562 247.359 37.2188C246.797 32.7812 246.141 29.9375 245.391 28.6875C245.016 28.25 244.484 27.7187 243.797 27.0938C243.234 26.5937 242.453 26 241.453 25.3125C240.453 24.625 239.203 23.8438 237.703 22.9688ZM326.859 22.4062C328.984 22.6562 330.766 22.8437 332.203 22.9688C333.703 23.0312 334.922 23.125 335.859 23.25C336.984 23.375 337.859 23.4375 338.484 23.4375C339.172 23.5 340.203 23.4688 341.578 23.3438C342.766 23.2187 344.359 23.0625 346.359 22.875C348.422 22.6875 351.047 22.4062 354.234 22.0312C352.797 23.2813 351.641 24.5 350.766 25.6875C349.953 26.8125 349.328 27.8125 348.891 28.6875C348.328 29.75 347.984 30.75 347.859 31.6875C347.609 33.1875 347.391 35.25 347.203 37.875C347.078 40.4375 346.953 43.25 346.828 46.3125C346.703 49.375 346.641 52.5312 346.641 55.7812C346.641 59.0312 346.672 62.125 346.734 65.0625C346.859 67.9375 347.047 70.5 347.297 72.75C347.609 75 347.984 76.625 348.422 77.625C349.047 78.75 349.703 79.875 350.391 81C351.016 81.9375 351.766 82.9062 352.641 83.9062C353.516 84.9062 354.516 85.7188 355.641 86.3438C351.953 86.1562 349.016 86.0625 346.828 86.0625H343.453C342.453 86.0625 341.172 86.125 339.609 86.25C338.297 86.375 336.641 86.5 334.641 86.625C332.641 86.75 330.234 86.9375 327.422 87.1875C328.859 85.625 329.984 84.125 330.797 82.6875C331.609 81.25 332.266 80 332.766 78.9375C333.328 77.6875 333.703 76.5 333.891 75.375C334.141 73.75 334.328 71.75 334.453 69.375C334.641 66.9375 334.766 64.3438 334.828 61.5938C334.891 58.7812 334.891 55.9375 334.828 53.0625C334.828 50.125 334.766 47.3125 334.641 44.625C334.516 41.9375 334.328 39.5 334.078 37.3125C333.891 35.125 333.641 33.375 333.328 32.0625C333.141 31.25 332.766 30.3437 332.203 29.3438C331.703 28.4687 331.016 27.4688 330.141 26.3438C329.328 25.1563 328.234 23.8438 326.859 22.4062ZM355.641 20.5312C358.453 21.0313 360.766 21.375 362.578 21.5625C364.391 21.75 365.859 21.9062 366.984 22.0312C368.297 22.1563 369.328 22.1875 370.078 22.125H372.891C373.891 22.125 375.141 22.125 376.641 22.125C378.203 22.0625 380.141 22.0312 382.453 22.0312C383.766 25.0937 384.953 27.9062 386.016 30.4688C387.141 33.0312 388.078 35.2188 388.828 37.0312C389.703 39.2188 390.516 41.1875 391.266 42.9375C392.141 45.125 393.078 47.5312 394.078 50.1562C395.078 52.7812 395.984 55.25 396.797 57.5625C397.672 59.875 398.391 61.7812 398.953 63.2812C399.516 64.7812 399.797 65.4688 399.797 65.3438C399.797 65.2812 399.828 64.6562 399.891 63.4688C399.953 62.2188 400.016 60.6875 400.078 58.875C400.141 57 400.203 54.9688 400.266 52.7812C400.391 50.5312 400.453 48.375 400.453 46.3125C400.516 44.1875 400.547 42.25 400.547 40.5C400.547 38.75 400.484 37.4375 400.359 36.5625C400.172 35.5 399.797 34.2812 399.234 32.9062C398.734 31.7188 398.047 30.3125 397.172 28.6875C396.297 27 395.078 25.0937 393.516 22.9688C396.078 23.0312 398.172 23.0625 399.797 23.0625C401.422 23.0625 402.734 23.0625 403.734 23.0625C404.859 23.0625 405.734 23.0312 406.359 22.9688C407.172 22.9688 408.172 22.9063 409.359 22.7812C410.422 22.6562 411.734 22.5625 413.297 22.5C414.922 22.375 416.922 22.2188 419.297 22.0312C417.922 23.2813 416.828 24.4688 416.016 25.5938C415.203 26.7188 414.547 27.7187 414.047 28.5938C413.484 29.5937 413.109 30.5312 412.922 31.4062C412.672 32.5312 412.453 34.375 412.266 36.9375C412.141 39.4375 411.984 42.25 411.797 45.375C411.672 48.5 411.547 51.75 411.422 55.125C411.297 58.5 411.172 61.5938 411.047 64.4062C411.047 66.5312 410.984 68.8125 410.859 71.25C410.734 73.3125 410.609 75.6562 410.484 78.2812C410.359 80.8438 410.203 83.4375 410.016 86.0625L401.672 86.25C399.234 81.9375 397.172 78.25 395.484 75.1875C393.859 72.0625 392.516 69.5 391.453 67.5C390.266 65.1875 389.266 63.25 388.453 61.6875C387.766 60.1875 386.859 58.4688 385.734 56.5312C384.797 54.9062 383.609 52.9062 382.172 50.5312C380.797 48.1562 379.141 45.4375 377.203 42.375C377.016 46.6875 376.922 50.375 376.922 53.4375C376.984 56.4375 377.078 58.9375 377.203 60.9375C377.391 63.25 377.609 65.1875 377.859 66.75C378.172 68.25 378.609 69.9375 379.172 71.8125C379.672 73.4375 380.266 75.3438 380.953 77.5312C381.703 79.7188 382.609 82.1875 383.672 84.9375C379.984 84.75 377.234 84.6562 375.422 84.6562H372.609C371.734 84.6562 370.547 84.75 369.047 84.9375C367.797 85.0625 366.078 85.25 363.891 85.5C361.766 85.75 359.109 86.0938 355.922 86.5312C357.422 84.7188 358.609 83.0625 359.484 81.5625C360.422 80 361.141 78.6875 361.641 77.625C362.266 76.375 362.703 75.2812 362.953 74.3438C363.141 73.3438 363.266 71.625 363.328 69.1875C363.391 66.6875 363.391 63.875 363.328 60.75C363.328 57.5625 363.266 54.2188 363.141 50.7188C363.078 47.2188 362.984 43.9688 362.859 40.9688C362.734 37.9688 362.578 35.4062 362.391 33.2812C362.266 31.1563 362.172 29.8438 362.109 29.3438C361.922 28.5313 361.547 27.6562 360.984 26.7188C360.484 25.9063 359.828 25 359.016 24C358.203 22.9375 357.078 21.7813 355.641 20.5312ZM420.047 20.0625C422.172 20.375 424.047 20.5937 425.672 20.7188C427.359 20.8438 428.766 20.9687 429.891 21.0938C431.203 21.2188 432.328 21.2812 433.266 21.2812H436.922C439.359 21.2812 443.391 21.1875 449.016 21C447.641 21.4375 446.484 22.0625 445.547 22.875C444.672 23.6875 443.953 24.5312 443.391 25.4062C442.703 26.4062 442.203 27.4375 441.891 28.5C441.516 29.8125 441.172 31.5625 440.859 33.75C440.547 35.6875 440.234 38.2188 439.922 41.3438C439.672 44.4688 439.422 48.375 439.172 53.0625C441.859 50 444.203 47.2812 446.203 44.9062C448.266 42.5312 450.047 40.4375 451.547 38.625C453.047 36.8125 454.297 35.25 455.297 33.9375C456.359 32.625 457.234 31.5 457.922 30.5625C459.547 28.4375 460.484 27 460.734 26.25C460.797 25.8125 460.766 25.2812 460.641 24.6562C460.516 24.1562 460.328 23.5625 460.078 22.875C459.828 22.125 459.453 21.3125 458.953 20.4375C461.453 20.5625 463.578 20.6563 465.328 20.7188C467.141 20.7812 468.641 20.8438 469.828 20.9062C471.203 20.9687 472.328 21 473.203 21H477.141C478.578 21 480.453 21 482.766 21C485.078 20.9375 487.984 20.875 491.484 20.8125C489.172 21.375 486.984 22.125 484.922 23.0625C482.859 24 481.016 24.9062 479.391 25.7812C477.516 26.8438 475.766 27.9375 474.141 29.0625C472.516 30.3125 470.703 31.7812 468.703 33.4688C467.016 34.9062 465.047 36.6875 462.797 38.8125C460.547 40.875 458.109 43.2812 455.484 46.0312C458.297 51.5312 460.734 56.0625 462.797 59.625C464.922 63.125 466.703 65.9375 468.141 68.0625C469.766 70.5625 471.141 72.4688 472.266 73.7812C473.391 74.9688 474.703 76.1875 476.203 77.4375C477.453 78.5 479.016 79.6875 480.891 81C482.766 82.25 484.922 83.4688 487.359 84.6562L460.641 85.9688C461.016 85.4688 461.234 84.875 461.297 84.1875C461.422 83.4375 461.484 82.75 461.484 82.125C461.484 81.4375 461.422 80.6875 461.297 79.875C461.047 78.875 460.391 77.25 459.328 75C458.453 73.0625 457.109 70.3438 455.297 66.8438C453.484 63.2812 450.984 58.5938 447.797 52.7812L439.828 61.125C439.516 63.125 439.359 64.9375 439.359 66.5625C439.359 68.1875 439.422 69.5312 439.547 70.5938C439.734 71.9062 439.984 73.0312 440.297 73.9688C440.672 74.9062 441.203 75.9688 441.891 77.1562C442.453 78.2188 443.203 79.4688 444.141 80.9062C445.078 82.3438 446.266 83.9375 447.703 85.6875C446.266 85.3125 444.828 85.0625 443.391 84.9375C441.953 84.75 440.641 84.625 439.453 84.5625C438.078 84.5 436.766 84.5312 435.516 84.6562C434.203 84.7812 432.672 84.9688 430.922 85.2188C429.422 85.4688 427.578 85.7812 425.391 86.1562C423.203 86.5312 420.703 87 417.891 87.5625C419.266 86.75 420.359 85.875 421.172 84.9375C421.984 84 422.641 83.0938 423.141 82.2188C423.703 81.2188 424.078 80.25 424.266 79.3125C424.391 78.5 424.484 76.75 424.547 74.0625C424.672 71.375 424.734 68.25 424.734 64.6875C424.797 61.0625 424.797 57.25 424.734 53.25C424.672 49.25 424.609 45.5 424.547 42C424.484 38.5 424.391 35.5312 424.266 33.0938C424.203 30.5938 424.141 29.0625 424.078 28.5C423.891 27.625 423.641 26.6875 423.328 25.6875C423.016 24.8125 422.578 23.9062 422.016 22.9688C421.516 21.9688 420.859 21 420.047 20.0625Z" fill="black"/>
</g>
<defs>
<clipPath id="clip0_3_7">
<rect width="492" height="92" fill="white"/>
</clipPath>
</defs>
</svg>
